
 #######                         #######                      
 #       ###### ###### #         #       #####  ###### ###### 
 #       #      #      #         #       #    # #      #      
 #####   #####  #####  #         #####   #    # #####  #####  
 #       #      #      #         #       #####  #      #      
 #       #      #      #         #       #   #  #      #      
 #       ###### ###### ######    #       #    # ###### ###### 

Genre:Thriller 
Language:English
IMDb: 
http://www.imdb.com/title/tt1336253/
Source:BluRay.x264.MELiTE


Format : MPEG-4
Format profile : Base Media
Codec ID : isom
File size : 2.13 GiB
Duration : 1h 28mn
Overall bit rate : 3 456 Kbps


Video
Format profile : High@L4.1
Format settings, CABAC : Yes
Format settings, ReFrames : 3 frames
Codec ID : avc1
Codec ID/Info : Advanced Video Coding
Duration : 1h 28mn
Bit rate mode : Variable
Bit rate : 3 006 Kbps
Nominal bit rate : 3 208 Kbps
Maximum bit rate : 16.7 Mbps
Width : 1 280 pixels
Height : 528 pixels
Display aspect ratio : 2.40:1
Frame rate mode : Constant
Frame rate : 23.976 fps
Color space : YUV
Chroma subsampling : 4:2:0
Bit depth : 8 bits
Scan type : Progressive
Bits/(Pixel*Frame) : 0.186
Stream size : 1.85 GiB (87%)
Writing library : x264

Audio
ID : 2
Format : AAC
Format/Info : Advanced Audio Codec
Format version : Version 4
Format profile : LC
Format settings, SBR : No
Codec ID : 40
Duration : 1h 28mn
Bit rate mode : Variable
Bit rate : 446 Kbps
Maximum bit rate : 546 Kbps
Channel(s) : 6 channels
Channel positions : Front: L C R, Side: L R, LFE
Sampling rate : 48.0 KHz
Stream size : 281 MiB (13%)

Plot:
Four friends set out on a motorcycle adventure weekend, clocking up miles in an attempt to outrun their age and urban lifestyles






================================== 
http://thepiratebay.org/user/hiest
==================================





Screen Shots:
 
http://www.postimg.com/30000/29371.jpg
 
http://www.postimg.com/30000/29372.jpg
 
http://www.postimg.com/30000/29373.jpg
 
http://www.postimg.com/30000/29374.jpg


 #######                         #######                      
 #       ###### ###### #         #       #####  ###### ###### 
 #       #      #      #         #       #    # #      #      
 #####   #####  #####  #         #####   #    # #####  #####  
 #       #      #      #         #       #####  #      #      
 #       #      #      #         #       #   #  #      #      
 #       ###### ###### ######    #       #    # ###### ###### 
